<?xml version="1.0" encoding="UTF-8" ?>
<!DOCTYPE svg PUBLIC "-//W3C//DTD SVG 1.1//EN" "http://www.w3.org/Graphics/SVG/1.1/DTD/svg11.dtd">
<svg width="677pt" height="677pt" viewBox="0 0 677 677" version="1.1" xmlns="http://www.w3.org/2000/svg">
<g id="#fefefeff">
<path fill="#fefefe" opacity="1.00" d=" M 321.45 86.68 C 362.57 83.91 404.41 91.09 442.06 107.93 C 463.06 117.80 483.01 130.17 500.32 145.68 C 511.02 155.28 521.01 165.72 529.77 177.12 C 541.27 190.92 550.18 206.63 558.63 222.41 C 565.31 236.29 571.22 250.58 575.80 265.30 C 589.32 309.55 591.39 357.39 580.60 402.46 C 571.74 439.84 554.45 475.30 530.01 504.97 C 517.71 520.58 503.26 534.38 488.01 547.06 C 457.55 570.83 421.14 587.02 382.99 593.32 C 360.60 597.41 337.66 597.89 315.02 595.97 C 272.14 591.51 230.37 575.90 195.52 550.43 C 167.00 529.91 142.55 503.68 124.42 473.57 C 108.97 448.15 98.34 419.94 92.33 390.84 C 89.80 376.99 87.36 363.03 87.48 348.89 C 86.33 325.08 89.29 301.21 94.74 278.05 C 102.66 248.55 115.47 220.22 133.24 195.32 C 145.13 177.90 159.22 161.95 175.15 148.11 C 215.19 111.94 267.78 90.63 321.45 86.68 M 269.45 206.47 C 256.70 213.54 247.89 225.96 241.85 238.93 C 229.13 267.93 227.78 301.78 238.56 331.59 C 239.75 333.72 237.58 335.00 236.22 336.25 C 230.83 340.83 226.24 346.28 222.09 351.99 C 214.07 363.88 207.13 376.80 203.93 390.88 C 199.40 408.40 199.31 427.91 207.84 444.27 C 214.04 458.24 225.99 468.88 239.63 475.38 C 250.99 481.54 263.67 484.43 276.14 487.41 C 309.15 493.82 343.08 494.46 376.50 491.29 C 393.45 489.49 410.42 486.62 426.45 480.66 C 442.10 474.89 456.90 464.96 465.42 450.31 C 474.04 436.32 477.03 419.19 474.62 403.01 C 471.42 380.44 461.36 358.87 446.08 341.94 C 442.79 337.71 438.23 334.82 434.31 331.29 C 439.28 320.85 443.47 309.91 445.26 298.44 C 448.60 279.01 449.76 258.68 444.43 239.50 C 440.29 225.92 432.12 212.51 418.93 206.18 C 407.57 200.33 393.46 200.06 382.14 206.16 C 370.84 211.77 363.05 222.24 356.95 232.96 C 349.50 247.64 344.86 263.64 342.32 279.87 C 341.07 287.19 339.85 294.57 339.94 302.02 C 339.97 304.98 339.80 307.95 339.32 310.88 C 338.56 310.87 337.02 310.85 336.26 310.84 C 337.21 284.83 335.95 258.23 327.55 233.39 C 323.48 222.62 317.41 211.81 307.25 205.75 C 295.80 198.94 280.77 199.80 269.45 206.47 Z" />
<path fill="#fefefe" opacity="1.00" d=" M 279.88 208.82 C 290.48 205.37 302.90 208.27 310.54 216.47 C 319.80 226.31 323.78 239.74 326.22 252.72 C 330.64 273.71 331.26 295.46 328.41 316.71 C 334.36 316.56 340.33 316.22 346.27 316.93 C 345.92 298.55 347.93 280.13 352.33 262.29 C 355.05 252.70 358.38 243.20 363.54 234.62 C 369.86 223.38 378.96 212.26 392.07 209.10 C 406.74 204.80 422.69 212.58 430.86 224.95 C 438.84 237.41 442.02 252.39 441.99 267.05 C 442.23 281.57 439.47 295.96 435.81 309.96 C 433.65 318.24 430.00 326.02 426.58 333.83 C 429.89 336.71 433.14 339.67 436.66 342.31 C 445.41 349.12 451.15 358.84 456.62 368.30 C 465.16 383.36 469.50 400.79 468.87 418.10 C 468.05 432.99 462.11 447.81 451.21 458.17 C 444.09 465.27 435.33 470.65 425.84 473.94 C 416.87 477.58 407.42 479.91 397.86 481.37 C 373.55 485.98 348.70 487.03 324.02 486.21 C 303.17 485.00 282.25 482.70 262.11 476.98 C 246.30 471.94 229.84 465.11 219.60 451.40 C 207.68 436.21 205.55 415.60 208.77 397.10 C 211.77 384.05 216.87 371.41 224.35 360.26 C 230.08 351.00 237.12 342.30 246.14 336.07 C 247.52 335.04 246.24 333.40 245.93 332.18 C 240.29 318.93 238.10 304.44 237.87 290.11 C 237.96 280.73 238.38 271.26 240.66 262.12 C 243.20 249.96 248.65 238.60 255.26 228.16 C 261.35 219.56 269.58 211.88 279.88 208.82 M 281.18 401.26 C 277.68 402.60 276.15 406.49 275.97 409.98 C 275.73 413.71 275.46 417.95 278.11 420.96 C 279.72 423.37 283.32 424.66 285.82 422.83 C 291.47 418.63 292.53 409.89 289.07 403.99 C 287.51 401.29 284.08 400.07 281.18 401.26 M 381.47 401.59 C 378.81 402.59 377.55 405.43 376.79 407.97 C 375.40 412.55 375.94 418.11 379.23 421.77 C 381.73 424.85 387.10 424.31 389.17 421.03 C 391.69 417.26 391.42 412.36 390.78 408.08 C 389.99 404.03 385.79 399.94 381.47 401.59 M 332.17 418.98 C 330.74 420.68 330.38 422.92 329.90 425.02 C 326.40 426.26 322.80 425.26 319.34 424.47 C 320.32 426.87 321.98 429.70 324.93 429.74 C 327.99 430.43 330.56 428.50 332.94 426.92 C 336.91 429.96 342.69 431.10 346.86 427.81 C 348.51 426.84 347.31 425.04 347.19 423.64 C 344.01 424.56 340.50 426.73 337.24 424.89 C 335.60 422.94 335.55 418.37 332.17 418.98 Z" />
</g>
<g id="#9daebeff">
<path fill="#9daebe" opacity="1.00" d=" M 322.37 79.46 C 345.79 78.15 369.49 79.25 392.43 84.43 C 408.02 87.37 423.22 92.15 437.88 98.16 C 449.16 102.17 459.30 108.61 469.83 114.19 C 487.59 125.22 504.78 137.60 518.89 153.14 C 525.41 159.69 531.10 166.99 537.12 173.98 C 550.93 191.88 562.17 211.62 571.71 232.08 C 575.14 240.95 578.97 249.68 581.56 258.85 C 589.67 282.06 592.90 306.66 594.40 331.10 C 595.24 356.60 593.16 382.28 586.94 407.06 C 581.15 428.14 574.00 449.01 563.17 468.09 C 558.36 478.23 551.93 487.44 545.73 496.75 C 541.77 502.67 537.36 508.27 532.62 513.58 C 521.66 527.54 508.87 539.99 495.15 551.21 C 480.84 561.89 465.84 571.68 449.90 579.76 C 416.32 595.71 379.22 604.75 341.96 604.46 C 323.76 604.76 305.59 602.80 287.71 599.45 C 249.74 591.52 213.74 574.59 183.15 550.79 C 175.97 544.66 168.21 539.18 161.86 532.15 C 146.21 517.25 132.18 500.56 120.87 482.13 C 109.97 464.45 100.46 445.78 94.16 425.94 C 89.58 413.69 86.16 400.99 84.15 388.06 C 78.12 355.36 78.00 321.48 84.66 288.86 C 86.08 280.48 88.33 272.27 91.10 264.24 C 96.11 247.61 103.17 231.65 111.49 216.42 C 117.07 207.10 121.95 197.31 128.77 188.79 C 137.24 175.59 148.10 164.20 158.97 152.99 C 175.38 137.06 193.40 122.56 213.53 111.60 C 227.35 103.14 242.60 97.37 257.85 92.09 C 278.63 84.87 300.45 80.97 322.37 79.46 M 321.45 86.68 C 267.78 90.63 215.19 111.94 175.15 148.11 C 159.22 161.95 145.13 177.90 133.24 195.32 C 115.47 220.22 102.66 248.55 94.74 278.05 C 89.29 301.21 86.33 325.08 87.48 348.89 C 87.36 363.03 89.80 376.99 92.33 390.84 C 98.34 419.94 108.97 448.15 124.42 473.57 C 142.55 503.68 167.00 529.91 195.52 550.43 C 230.37 575.90 272.14 591.51 315.02 595.97 C 337.66 597.89 360.60 597.41 382.99 593.32 C 421.14 587.02 457.55 570.83 488.01 547.06 C 503.26 534.38 517.71 520.58 530.01 504.97 C 554.45 475.30 571.74 439.84 580.60 402.46 C 591.39 357.39 589.32 309.55 575.80 265.30 C 571.22 250.58 565.31 236.29 558.63 222.41 C 550.18 206.63 541.27 190.92 529.77 177.12 C 521.01 165.72 511.02 155.28 500.32 145.68 C 483.01 130.17 463.06 117.80 442.06 107.93 C 404.41 91.09 362.57 83.91 321.45 86.68 Z" />
<path fill="#9daebe" opacity="1.00" d=" M 269.45 206.47 C 280.77 199.80 295.80 198.94 307.25 205.75 C 317.41 211.81 323.48 222.62 327.55 233.39 C 335.95 258.23 337.21 284.83 336.26 310.84 C 337.02 310.85 338.56 310.87 339.32 310.88 C 339.80 307.95 339.97 304.98 339.94 302.02 C 339.85 294.57 341.07 287.19 342.32 279.87 C 344.86 263.64 349.50 247.64 356.95 232.96 C 363.05 222.24 370.84 211.77 382.14 206.16 C 393.46 200.06 407.57 200.33 418.93 206.18 C 432.12 212.51 440.29 225.92 444.43 239.50 C 449.76 258.68 448.60 279.01 445.26 298.44 C 443.47 309.91 439.28 320.85 434.31 331.29 C 438.23 334.82 442.79 337.71 446.08 341.94 C 461.36 358.87 471.42 380.44 474.62 403.01 C 477.03 419.19 474.04 436.32 465.42 450.31 C 456.90 464.96 442.10 474.89 426.45 480.66 C 410.42 486.62 393.45 489.49 376.50 491.29 C 343.08 494.46 309.15 493.82 276.14 487.41 C 263.67 484.43 250.99 481.54 239.63 475.38 C 225.99 468.88 214.04 458.24 207.84 444.27 C 199.31 427.91 199.40 408.40 203.93 390.88 C 207.13 376.80 214.07 363.88 222.09 351.99 C 226.24 346.28 230.83 340.83 236.22 336.25 C 237.58 335.00 239.75 333.72 238.56 331.59 C 227.78 301.78 229.13 267.93 241.85 238.93 C 247.89 225.96 256.70 213.54 269.45 206.47 M 279.88 208.82 C 269.58 211.88 261.35 219.56 255.26 228.16 C 248.65 238.60 243.20 249.96 240.66 262.12 C 238.38 271.26 237.96 280.73 237.87 290.11 C 238.10 304.44 240.29 318.93 245.93 332.18 C 246.24 333.40 247.52 335.04 246.14 336.07 C 237.12 342.30 230.08 351.00 224.35 360.26 C 216.87 371.41 211.77 384.05 208.77 397.10 C 205.55 415.60 207.68 436.21 219.60 451.40 C 229.84 465.11 246.30 471.94 262.11 476.98 C 282.25 482.70 303.17 485.00 324.02 486.21 C 348.70 487.03 373.55 485.98 397.86 481.37 C 407.42 479.91 416.87 477.58 425.84 473.94 C 435.33 470.65 444.09 465.27 451.21 458.17 C 462.11 447.81 468.05 432.99 468.87 418.10 C 469.50 400.79 465.16 383.36 456.62 368.30 C 451.15 358.84 445.41 349.12 436.66 342.31 C 433.14 339.67 429.89 336.71 426.58 333.83 C 430.00 326.02 433.65 318.24 435.81 309.96 C 439.47 295.96 442.23 281.57 441.99 267.05 C 442.02 252.39 438.84 237.41 430.86 224.95 C 422.69 212.58 406.74 204.80 392.07 209.10 C 378.96 212.26 369.86 223.38 363.54 234.62 C 358.38 243.20 355.05 252.70 352.33 262.29 C 347.93 280.13 345.92 298.55 346.27 316.93 C 340.33 316.22 334.36 316.56 328.41 316.71 C 331.26 295.46 330.64 273.71 326.22 252.72 C 323.78 239.74 319.80 226.31 310.54 216.47 C 302.90 208.27 290.48 205.37 279.88 208.82 Z" />
<path fill="#9daebe" opacity="1.00" d=" M 281.18 401.26 C 284.08 400.07 287.51 401.29 289.07 403.99 C 292.53 409.89 291.47 418.63 285.82 422.83 C 283.32 424.66 279.72 423.37 278.11 420.96 C 275.46 417.95 275.73 413.71 275.97 409.98 C 276.15 406.49 277.68 402.60 281.18 401.26 Z" />
<path fill="#9daebe" opacity="1.00" d=" M 381.47 401.59 C 385.79 399.94 389.99 404.03 390.78 408.08 C 391.42 412.36 391.69 417.26 389.17 421.03 C 387.10 424.31 381.73 424.85 379.23 421.77 C 375.94 418.11 375.40 412.55 376.79 407.97 C 377.55 405.43 378.81 402.59 381.47 401.59 Z" />
<path fill="#9daebe" opacity="1.00" d=" M 332.17 418.98 C 335.55 418.37 335.60 422.94 337.24 424.89 C 340.50 426.73 344.01 424.56 347.19 423.64 C 347.31 425.04 348.51 426.84 346.86 427.81 C 342.69 431.10 336.91 429.96 332.94 426.92 C 330.56 428.50 327.99 430.43 324.93 429.74 C 321.98 429.70 320.32 426.87 319.34 424.47 C 322.80 425.26 326.40 426.26 329.90 425.02 C 330.38 422.92 330.74 420.68 332.17 418.98 Z" />
</g>
</svg>
